# xmcd
#
# Track frame offsets:
# 150
# 6393
# 10673
# 13238
# 17290
# 31744
# 33843
# 43840
# 48212
# 54075
# 59277
# 64005
# 70704
# 81657
# 85784
# 93743
# 103142
# 108485
# 117277
# 124200
# 129882
# 138493
# 145788
# 153406
# 159188
# 174958
# 181865
# 193593
# 200437
# 203536
# 214804
# 219995
# 238124
# 243315
# 249544
# 256169
# 264712
# 274513
# 279184
# 288477
# 293485
# 297367
# 305561
# 312055
#
# Disc length: 4259 seconds
#
#
# Revision: 0
# Processed by: cddbd v1.5.2PL0 Copyright (c) Steve Scherf et al.
# Submitted via: FreeRIP 2.52 
#
DISCID=6610a12c
DTITLE=Шнейдер, Виктор - 2000
DYEAR=2000
DGENRE=Chanson
TTITLE0=Рэп-гимн постмодерна
TTITLE1=Свадебная
TTITLE2=СНКТПТРСБРГ
TTITLE3=О тщете всего сущего
TTITLE4=Песенка о забытом начале
TTITLE5=Тянут тину вязнут в вате
TTITLE6=Новый дед Мазай
TTITLE7=Смерть жанра воплощения идей
TTITLE8=Фото Дорианы Грей
TTITLE9=Присудило мне гаданье
TTITLE10=Как я милую любил
TTITLE11=Спящая красавица
TTITLE12=Эволюционная
TTITLE13=Сельскохозяйственная
TTITLE14=Цыганочка А Григорьев
TTITLE15=Хромая судьба
TTITLE16=Старой приятельнице
TTITLE17=Биохимическая лирическая
TTITLE18=Chanson russe
TTITLE19=Попугаи вам не утки
TTITLE20=Лирическая
TTITLE21=Загадка имени Цоя
TTITLE22=Уже кончается день
TTITLE23=Разучился терять дар речи
TTITLE24=Она стоит того, что бы в нее
TTITLE25=Гном
TTITLE26=Орфей Р Май
TTITLE27=Не возражает
TTITLE28=Удивительный пейзаж
TTITLE29=Монолог синей бороды
TTITLE30=Серенада 2
TTITLE31=Псалом 137
TTITLE32=Dont Speak Memory
TTITLE33=Заходи ко мне под вечер
TTITLE34=О благодати
TTITLE35=Из жизни в жизнь
TTITLE36=Крылья 1
TTITLE37=Костыли постылые
TTITLE38=Крылья 2
TTITLE39=Сонетный романс
TTITLE40=Год русалки
TTITLE41=Народная
TTITLE42=Я часто думаю о том
TTITLE43=Чужая женщина
EXTD=
EXTT0=
EXTT1=
EXTT2=
EXTT3=
EXTT4=
EXTT5=
EXTT6=
EXTT7=
EXTT8=
EXTT9=
EXTT10=
EXTT11=
EXTT12=
EXTT13=
EXTT14=
EXTT15=
EXTT16=
EXTT17=
EXTT18=
EXTT19=
EXTT20=
EXTT21=
EXTT22=
EXTT23=
EXTT24=
EXTT25=
EXTT26=
EXTT27=
EXTT28=
EXTT29=
EXTT30=
EXTT31=
EXTT32=
EXTT33=
EXTT34=
EXTT35=
EXTT36=
EXTT37=
EXTT38=
EXTT39=
EXTT40=
EXTT41=
EXTT42=
EXTT43=
PLAYORDER=
